<svg id="svg" version="1.1" xmlns="http://www.w3.org/2000/svg" xmlns:xlink="http://www.w3.org/1999/xlink" width="400" height="394.7791164658634" viewBox="0, 0, 400,394.7791164658634"><g id="svgg"><path id="path0" d="M189.339 4.011 C 188.036 4.165,185.192 4.404,183.021 4.542 C 180.849 4.680,177.117 5.050,174.729 5.366 C 172.340 5.681,170.074 5.863,169.694 5.771 C 169.314 5.678,169.003 5.743,169.003 5.914 C 169.003 6.086,168.028 6.349,166.837 6.497 C 165.646 6.646,164.569 6.934,164.444 7.137 C 164.319 7.339,163.802 7.401,163.296 7.274 C 162.790 7.148,162.262 7.228,162.123 7.453 C 161.984 7.679,161.607 7.762,161.285 7.638 C 160.964 7.515,160.436 7.633,160.113 7.902 C 159.669 8.270,159.393 8.278,158.980 7.936 C 158.558 7.585,158.379 7.624,158.193 8.110 C 158.061 8.455,157.766 8.622,157.537 8.481 C 157.309 8.340,156.864 8.439,156.547 8.701 C 156.096 9.076,155.840 9.069,155.358 8.669 C 154.850 8.247,154.764 8.256,154.864 8.719 C 154.936 9.053,154.666 9.285,154.195 9.294 C 153.760 9.302,153.175 9.451,152.894 9.624 C 152.603 9.805,152.105 9.714,151.733 9.412 C 151.262 9.030,151.165 9.022,151.381 9.381 C 151.705 9.920,151.140 10.246,149.594 10.411 C 149.066 10.467,148.464 10.617,148.256 10.743 C 147.488 11.210,143.624 12.221,143.322 12.034 C 143.150 11.928,142.950 12.007,142.877 12.211 C 142.804 12.414,142.211 12.637,141.560 12.707 C 140.908 12.776,140.286 12.938,140.178 13.065 C 140.069 13.193,137.848 14.059,135.242 14.990 C 132.636 15.921,129.203 17.197,127.614 17.825 C 126.024 18.453,124.558 18.865,124.356 18.739 C 124.154 18.614,123.988 18.672,123.988 18.867 C 123.988 19.555,121.923 20.234,121.562 19.665 C 121.310 19.267,121.235 19.289,121.230 19.763 C 121.221 20.656,117.656 22.328,117.221 21.643 C 116.964 21.237,116.891 21.256,116.887 21.730 C 116.879 22.453,111.114 25.414,110.478 25.022 C 110.240 24.875,110.155 24.932,110.289 25.148 C 110.423 25.365,108.859 26.459,106.813 27.579 C 102.915 29.713,102.439 29.905,102.900 29.159 C 103.076 28.874,103.009 28.811,102.720 28.989 C 102.466 29.146,102.349 29.423,102.462 29.605 C 102.574 29.786,101.821 30.425,100.790 31.024 C 99.758 31.624,97.650 32.962,96.106 33.999 C 94.154 35.309,93.171 35.758,92.885 35.471 C 92.598 35.185,92.491 35.222,92.534 35.595 C 92.568 35.889,92.471 36.130,92.317 36.130 C 92.164 36.130,91.808 36.409,91.527 36.750 C 91.247 37.090,88.707 39.037,85.884 41.075 C 79.323 45.812,75.653 48.670,73.544 50.684 C 72.621 51.566,71.866 52.172,71.866 52.031 C 71.866 51.890,70.945 52.748,69.820 53.938 C 68.695 55.127,67.559 56.018,67.295 55.917 C 66.800 55.727,64.999 57.365,65.335 57.701 C 65.439 57.805,64.108 59.298,62.377 61.019 C 60.646 62.739,59.230 63.996,59.230 63.812 C 59.230 63.628,58.963 63.698,58.638 63.968 C 58.312 64.239,58.045 64.758,58.045 65.121 C 58.045 65.872,55.300 68.707,54.574 68.707 C 54.311 68.707,54.097 68.998,54.097 69.354 C 54.097 69.710,53.151 71.087,51.995 72.414 C 36.318 90.415,22.856 114.296,15.353 137.414 C 14.401 140.346,13.534 142.833,13.425 142.942 C 13.317 143.050,13.170 143.670,13.100 144.319 C 13.029 144.968,12.851 145.590,12.705 145.701 C 12.558 145.812,12.381 146.434,12.310 147.083 C 12.239 147.732,11.995 148.487,11.768 148.761 C 11.541 149.035,11.487 149.260,11.649 149.260 C 11.810 149.260,11.740 149.504,11.493 149.802 C 11.245 150.100,11.147 150.615,11.274 150.947 C 11.401 151.278,11.312 151.668,11.077 151.814 C 10.841 151.959,10.756 152.251,10.886 152.463 C 11.017 152.675,10.916 153.099,10.661 153.406 C 10.407 153.712,10.318 154.157,10.464 154.393 C 10.610 154.629,10.521 155.073,10.267 155.380 C 10.012 155.687,9.911 156.111,10.042 156.323 C 10.172 156.534,10.110 156.812,9.903 156.940 C 9.696 157.068,9.515 157.480,9.501 157.856 C 9.454 159.049,9.225 160.494,8.985 161.106 C 8.858 161.431,8.739 161.964,8.721 162.290 C 8.651 163.553,7.309 170.390,7.112 170.485 C 6.998 170.539,6.970 171.406,7.050 172.411 C 7.130 173.415,7.042 174.145,6.855 174.032 C 6.668 173.919,6.462 175.540,6.396 177.634 C 6.330 179.728,6.152 181.485,6.001 181.539 C 5.849 181.593,5.786 182.704,5.859 184.007 C 5.933 185.311,5.844 186.377,5.662 186.377 C 5.480 186.377,5.331 191.530,5.331 197.828 C 5.331 204.126,5.480 209.279,5.662 209.279 C 5.844 209.279,5.933 210.346,5.859 211.649 C 5.786 212.953,5.859 214.019,6.022 214.018 C 6.185 214.018,6.318 214.691,6.318 215.515 C 6.318 216.338,6.596 219.129,6.935 221.717 C 7.274 224.305,7.469 226.741,7.367 227.131 C 7.265 227.520,7.322 227.752,7.494 227.646 C 7.667 227.539,7.934 228.472,8.089 229.718 C 8.244 230.964,8.485 232.162,8.625 232.379 C 8.853 232.733,8.990 233.571,9.108 235.341 C 9.130 235.666,9.247 236.199,9.367 236.525 C 9.609 237.178,9.852 238.373,9.929 239.289 C 9.957 239.615,10.148 240.096,10.354 240.358 C 10.561 240.620,10.622 241.007,10.492 241.219 C 10.361 241.431,10.441 241.720,10.671 241.862 C 10.901 242.004,10.980 242.460,10.848 242.876 C 10.704 243.331,10.795 243.633,11.076 243.633 C 11.349 243.633,11.457 243.961,11.337 244.422 C 11.223 244.856,11.304 245.318,11.515 245.449 C 11.727 245.580,11.809 245.924,11.698 246.214 C 11.586 246.504,11.660 246.797,11.861 246.865 C 12.063 246.933,12.295 247.522,12.379 248.174 C 12.462 248.825,12.731 249.859,12.978 250.470 C 13.224 251.081,13.425 251.712,13.425 251.872 C 13.425 254.076,20.603 272.899,24.720 281.489 C 26.320 284.827,27.515 287.742,27.376 287.967 C 27.237 288.192,27.314 288.257,27.548 288.113 C 27.794 287.961,28.455 288.725,29.119 289.927 C 31.657 294.524,32.612 296.134,35.271 300.296 C 40.819 308.981,47.496 318.055,52.632 323.890 C 54.114 325.574,55.233 327.103,55.119 327.288 C 55.004 327.473,55.350 328.037,55.886 328.541 C 56.422 329.044,56.861 329.298,56.861 329.105 C 56.861 328.912,57.838 329.719,59.033 330.898 C 60.227 332.078,61.204 333.333,61.204 333.686 C 61.204 334.409,62.404 335.637,63.110 335.637 C 63.760 335.637,69.490 341.148,69.385 341.673 C 69.338 341.911,69.651 342.181,70.082 342.274 C 70.512 342.367,72.112 343.543,73.636 344.888 C 79.736 350.272,88.378 356.591,98.436 363.019 C 100.996 364.655,103.098 366.138,103.108 366.314 C 103.118 366.490,103.229 366.723,103.354 366.831 C 103.479 366.940,103.454 366.807,103.298 366.535 C 102.951 365.933,103.258 365.908,104.282 366.456 C 104.708 366.684,104.935 367.067,104.787 367.307 C 104.628 367.565,104.698 367.632,104.960 367.470 C 105.534 367.115,108.689 368.719,108.384 369.211 C 108.252 369.426,108.442 369.475,108.830 369.326 C 109.326 369.136,109.421 369.206,109.184 369.589 C 108.979 369.921,109.015 370.017,109.281 369.852 C 109.834 369.511,111.015 369.973,110.737 370.422 C 110.619 370.614,110.827 370.654,111.199 370.511 C 111.695 370.320,111.790 370.391,111.554 370.774 C 111.351 371.102,111.384 371.202,111.644 371.041 C 111.871 370.901,114.519 371.954,117.529 373.382 C 123.544 376.234,130.430 378.960,137.414 381.253 C 139.911 382.073,142.043 382.851,142.152 382.981 C 142.261 383.111,142.883 383.275,143.534 383.344 C 144.186 383.414,144.775 383.626,144.843 383.816 C 144.911 384.006,145.204 384.070,145.494 383.959 C 145.784 383.848,146.133 383.939,146.271 384.161 C 146.408 384.384,146.782 384.466,147.101 384.343 C 147.419 384.221,147.680 384.328,147.680 384.581 C 147.680 384.834,147.866 384.927,148.092 384.787 C 148.319 384.647,148.763 384.747,149.079 385.009 C 149.396 385.272,149.654 385.354,149.654 385.192 C 149.654 385.031,149.877 385.074,150.148 385.288 C 150.420 385.502,150.953 385.701,151.333 385.731 C 151.713 385.761,152.335 385.809,152.715 385.839 C 153.095 385.868,153.620 386.061,153.882 386.267 C 154.144 386.474,154.531 386.535,154.743 386.405 C 154.955 386.274,155.247 386.359,155.393 386.595 C 155.538 386.831,155.900 386.930,156.197 386.816 C 156.494 386.702,156.835 386.768,156.955 386.962 C 157.074 387.155,157.480 387.320,157.856 387.327 C 159.263 387.355,161.106 387.862,161.106 388.222 C 161.106 388.427,161.275 388.491,161.482 388.363 C 161.852 388.134,169.034 389.174,170.188 389.624 C 170.513 389.751,171.046 389.828,171.372 389.795 C 171.698 389.762,173.830 389.995,176.111 390.314 C 178.391 390.632,183.189 390.997,186.772 391.126 C 190.355 391.254,193.527 391.439,193.821 391.536 C 194.415 391.734,394.139 391.778,394.336 391.580 C 394.481 391.435,394.405 187.624,394.259 183.218 C 394.204 181.589,394.036 179.952,393.884 179.579 C 393.732 179.206,393.669 177.917,393.744 176.715 C 393.818 175.513,393.781 174.530,393.661 174.531 C 393.332 174.531,392.420 166.684,392.698 166.234 C 392.830 166.020,392.731 165.844,392.476 165.844 C 392.187 165.844,392.078 165.402,392.185 164.669 C 392.280 164.023,392.213 163.445,392.036 163.386 C 391.859 163.326,391.668 162.346,391.612 161.207 C 391.556 160.069,391.377 159.136,391.214 159.134 C 391.051 159.133,390.917 158.731,390.915 158.243 C 390.894 151.189,380.200 121.709,372.299 106.923 C 366.657 96.366,354.666 79.067,347.965 71.819 C 346.819 70.579,345.930 69.416,345.991 69.234 C 346.051 69.053,345.923 68.855,345.706 68.795 C 345.126 68.634,340.451 63.965,339.490 62.586 C 338.674 61.415,338.682 61.417,340.211 62.777 C 341.061 63.533,340.073 62.423,338.014 60.309 C 335.955 58.195,334.189 56.466,334.090 56.466 C 333.991 56.466,334.418 56.997,335.040 57.646 C 335.663 58.296,336.062 58.936,335.929 59.069 C 335.606 59.393,332.027 55.691,332.275 55.289 C 332.497 54.930,331.405 53.925,330.746 53.883 C 329.753 53.818,328.891 53.172,329.094 52.643 C 329.214 52.330,329.136 52.189,328.917 52.324 C 328.700 52.458,328.417 52.291,328.288 51.952 C 328.158 51.614,327.916 51.421,327.751 51.523 C 327.585 51.625,327.115 51.316,326.706 50.837 C 325.972 49.975,325.972 49.971,326.752 50.550 C 327.482 51.091,327.501 51.083,327.004 50.449 C 326.708 50.071,326.334 49.843,326.173 49.942 C 326.013 50.042,325.544 49.849,325.132 49.514 C 324.720 49.179,324.650 49.035,324.975 49.195 C 325.323 49.365,325.432 49.337,325.239 49.125 C 325.058 48.928,324.791 48.764,324.646 48.761 C 324.292 48.755,321.087 46.547,317.473 43.819 C 311.137 39.037,300.419 32.146,292.347 27.666 C 290.099 26.418,288.391 25.251,288.552 25.074 C 288.713 24.896,288.626 24.876,288.358 25.030 C 288.090 25.184,286.669 24.746,285.199 24.058 C 275.726 19.619,267.209 16.230,258.835 13.568 C 256.881 12.947,255.225 12.315,255.157 12.164 C 255.089 12.014,254.778 11.988,254.466 12.108 C 254.104 12.247,253.888 12.061,253.868 11.592 C 253.850 11.176,253.751 11.073,253.638 11.352 C 253.338 12.096,252.321 11.945,252.314 11.155 C 252.309 10.569,252.251 10.553,251.935 11.053 C 251.652 11.501,251.453 11.532,251.104 11.183 C 250.851 10.930,250.399 10.817,250.100 10.932 C 249.759 11.063,249.554 10.867,249.550 10.407 C 249.545 9.786,249.483 9.765,249.147 10.267 C 248.802 10.783,248.681 10.767,248.206 10.147 C 247.802 9.619,247.613 9.568,247.473 9.949 C 247.329 10.344,247.171 10.356,246.793 10.001 C 246.522 9.747,246.057 9.632,245.760 9.746 C 245.462 9.860,245.108 9.664,244.972 9.310 C 244.781 8.812,244.602 8.769,244.179 9.120 C 243.767 9.462,243.492 9.457,243.058 9.096 C 242.742 8.834,242.296 8.734,242.068 8.876 C 241.840 9.017,241.545 8.850,241.412 8.505 C 241.226 8.019,241.048 7.980,240.625 8.330 C 240.213 8.673,239.938 8.667,239.504 8.307 C 239.188 8.044,238.736 7.949,238.500 8.095 C 238.263 8.241,237.819 8.152,237.512 7.897 C 237.206 7.643,236.758 7.556,236.518 7.705 C 236.277 7.853,235.736 7.663,235.316 7.283 C 234.874 6.882,234.551 6.783,234.551 7.046 C 234.551 7.666,233.936 7.621,233.268 6.953 C 232.910 6.595,232.504 6.524,232.100 6.751 C 231.695 6.977,231.327 6.913,231.039 6.565 C 230.789 6.265,230.169 6.115,229.612 6.222 C 229.015 6.336,228.628 6.228,228.628 5.946 C 228.628 5.690,228.448 5.593,228.228 5.729 C 227.892 5.936,221.531 5.356,215.400 4.558 C 214.531 4.445,209.200 4.256,203.554 4.137 C 197.907 4.018,192.932 3.879,192.498 3.827 C 192.063 3.775,190.642 3.858,189.339 4.011 M279.368 88.632 C 298.645 92.838,312.342 105.354,316.744 122.784 L 317.893 127.333 317.897 198.847 C 317.900 262.821,317.833 270.683,317.269 273.414 C 312.845 294.834,295.415 311.794,274.630 314.903 C 271.254 315.408,261.694 315.494,208.730 315.496 L 146.780 315.499 142.590 318.591 C 140.286 320.292,136.979 322.680,135.242 323.897 C 133.504 325.114,131.476 326.610,130.735 327.221 C 129.994 327.832,128.855 328.687,128.205 329.121 C 127.555 329.556,126.355 330.355,125.539 330.898 C 124.723 331.441,122.625 332.915,120.876 334.174 C 119.127 335.433,117.565 336.499,117.405 336.543 C 117.245 336.588,116.698 337.040,116.190 337.548 C 115.682 338.056,115.009 338.373,114.696 338.253 C 114.373 338.129,114.167 338.242,114.220 338.514 C 114.272 338.777,114.017 338.971,113.654 338.943 C 113.291 338.916,113.067 339.094,113.157 339.338 C 113.246 339.583,111.029 341.425,108.231 343.432 C 102.980 347.198,101.475 348.083,102.072 347.056 C 102.265 346.724,102.251 346.629,102.038 346.825 C 101.840 347.006,101.678 347.354,101.678 347.599 C 101.678 347.958,92.907 354.592,90.386 356.140 C 89.309 356.802,89.243 350.036,89.244 238.697 C 89.244 145.798,89.321 131.575,89.839 128.134 C 91.436 117.519,95.566 108.988,102.463 102.054 C 106.691 97.804,114.267 92.747,115.377 93.433 C 115.627 93.587,115.708 93.528,115.565 93.296 C 115.085 92.519,123.074 89.614,128.924 88.439 C 132.271 87.766,136.619 87.724,203.751 87.704 L 275.025 87.684 279.368 88.632 M127.199 149.677 C 131.840 154.467,138.169 161.026,141.264 164.252 L 146.890 170.117 146.895 205.789 C 146.900 245.005,146.824 243.682,149.332 247.862 C 151.229 251.023,153.760 253.344,157.124 255.006 L 160.077 256.466 202.509 256.572 C 239.831 256.665,245.231 256.603,247.347 256.063 C 253.661 254.452,258.806 249.022,260.172 242.527 C 260.941 238.870,260.776 158.232,259.992 154.786 C 258.511 148.272,252.527 142.675,245.650 141.370 C 244.261 141.107,221.923 140.967,181.143 140.967 L 118.761 140.967 127.199 149.677 M26.061 285.884 C 26.504 286.752,26.956 287.463,27.064 287.463 C 27.173 287.463,26.899 286.752,26.456 285.884 C 26.013 285.015,25.561 284.304,25.453 284.304 C 25.344 284.304,25.618 285.015,26.061 285.884 " stroke="none" fill="#ec5353" fill-rule="evenodd"></path><path id="path1" d="M195.163 3.848 C 197.063 3.920,200.173 3.920,202.073 3.848 C 203.973 3.775,202.419 3.716,198.618 3.716 C 194.817 3.716,193.263 3.775,195.163 3.848 M184.699 4.227 C 185.188 4.321,185.987 4.321,186.476 4.227 C 186.964 4.133,186.565 4.056,185.587 4.056 C 184.610 4.056,184.210 4.133,184.699 4.227 M210.568 4.232 C 211.168 4.323,212.057 4.320,212.542 4.227 C 213.028 4.133,212.537 4.059,211.451 4.062 C 210.365 4.065,209.968 4.141,210.568 4.232 M180.360 4.623 C 180.851 4.717,181.562 4.714,181.939 4.615 C 182.317 4.516,181.915 4.439,181.046 4.443 C 180.178 4.447,179.869 4.528,180.360 4.623 M216.288 4.622 C 216.777 4.716,217.577 4.716,218.065 4.622 C 218.554 4.528,218.154 4.451,217.177 4.451 C 216.199 4.451,215.800 4.528,216.288 4.622 M146.298 10.661 C 145.800 10.875,145.727 11.001,146.101 11.001 C 146.426 11.001,147.048 10.848,147.483 10.661 C 147.981 10.447,148.053 10.322,147.680 10.322 C 147.354 10.322,146.732 10.475,146.298 10.661 M119.348 20.400 C 118.540 20.726,118.789 21.266,119.645 21.042 C 120.079 20.929,120.434 20.679,120.434 20.487 C 120.434 20.111,120.126 20.086,119.348 20.400 M279.171 20.923 C 279.171 21.196,280.099 21.718,280.585 21.718 C 281.124 21.718,280.618 20.985,279.961 20.814 C 279.526 20.700,279.171 20.749,279.171 20.923 M116.025 22.014 C 115.953 22.177,113.495 23.534,110.563 25.029 C 107.631 26.525,105.054 27.922,104.837 28.134 C 104.620 28.346,107.230 27.123,110.638 25.415 C 116.189 22.633,117.645 21.718,116.519 21.718 C 116.320 21.718,116.097 21.851,116.025 22.014 M281.935 22.044 C 281.935 22.405,291.858 27.326,292.100 27.084 C 292.193 26.991,290.343 25.968,287.990 24.810 C 285.637 23.652,283.623 22.603,283.514 22.479 C 283.160 22.072,281.935 21.735,281.935 22.044 M292.596 27.427 C 292.596 27.536,293.307 27.987,294.176 28.430 C 295.044 28.874,295.755 29.147,295.755 29.039 C 295.755 28.930,295.044 28.479,294.176 28.036 C 293.307 27.592,292.596 27.319,292.596 27.427 M296.940 29.792 C 296.940 29.901,297.473 30.265,298.124 30.602 C 298.776 30.939,299.309 31.126,299.309 31.017 C 299.309 30.909,298.776 30.544,298.124 30.207 C 297.473 29.870,296.940 29.684,296.940 29.792 M302.442 33.094 C 302.970 33.523,303.948 34.174,304.614 34.542 L 305.824 35.209 304.863 34.429 C 304.335 33.999,303.357 33.348,302.691 32.981 L 301.481 32.313 302.442 33.094 M306.022 35.272 C 306.022 35.357,306.999 36.075,308.193 36.868 C 309.388 37.661,310.364 38.175,310.363 38.010 C 310.360 37.738,309.398 37.075,306.910 35.633 C 306.422 35.350,306.022 35.187,306.022 35.272 M88.845 37.907 C 88.302 38.332,88.036 38.679,88.253 38.679 C 88.470 38.679,89.092 38.332,89.635 37.907 C 90.178 37.483,90.444 37.135,90.227 37.135 C 90.010 37.135,89.388 37.483,88.845 37.907 M310.760 38.433 C 310.760 38.646,314.221 41.066,314.526 41.066 C 314.680 41.066,314.584 40.800,314.314 40.474 C 314.044 40.148,313.659 39.882,313.459 39.882 C 313.260 39.882,312.715 39.526,312.249 39.092 C 311.497 38.392,310.760 38.065,310.760 38.433 M85.489 40.308 C 83.378 41.903,82.848 42.519,84.304 41.683 C 85.906 40.763,87.952 39.094,87.463 39.105 C 87.246 39.110,86.357 39.651,85.489 40.308 M315.126 41.335 C 315.158 41.821,317.473 43.558,317.473 43.097 C 317.473 42.878,316.940 42.320,316.288 41.856 C 315.637 41.392,315.113 41.158,315.126 41.335 M81.977 42.876 C 81.829 43.261,81.918 43.441,82.206 43.345 C 82.796 43.148,83.121 42.251,82.602 42.251 C 82.390 42.251,82.109 42.532,81.977 42.876 M317.868 43.339 C 317.868 43.556,318.134 43.955,318.460 44.225 C 318.790 44.499,319.052 44.542,319.052 44.322 C 319.052 44.105,318.786 43.706,318.460 43.435 C 318.130 43.161,317.868 43.118,317.868 43.339 M80.384 44.056 C 80.022 44.418,79.827 44.815,79.951 44.940 C 80.075 45.064,80.473 44.869,80.835 44.507 C 81.197 44.145,81.391 43.747,81.267 43.623 C 81.143 43.499,80.746 43.694,80.384 44.056 M319.447 44.751 C 319.447 44.824,320.202 45.474,321.125 46.198 L 322.804 47.512 321.443 46.066 C 320.275 44.825,319.447 44.279,319.447 44.751 M78.383 45.802 C 77.989 46.238,77.850 46.594,78.074 46.594 C 78.571 46.594,79.556 45.466,79.290 45.200 C 79.186 45.096,78.778 45.366,78.383 45.802 M74.863 48.788 C 73.649 49.777,72.655 50.675,72.655 50.784 C 72.655 51.052,73.752 50.250,75.818 48.470 C 78.238 46.384,77.521 46.623,74.863 48.788 M323.556 48.116 C 324.391 49.057,324.580 49.143,324.580 48.583 C 324.580 48.373,324.181 47.992,323.692 47.735 C 322.808 47.272,322.808 47.274,323.556 48.116 M70.197 52.811 C 69.605 53.178,69.017 53.747,68.892 54.075 C 68.759 54.419,69.130 54.261,69.771 53.699 C 70.380 53.164,71.047 52.591,71.254 52.424 C 71.902 51.902,71.318 52.116,70.197 52.811 M332.903 56.305 C 333.429 56.868,334.215 57.512,334.650 57.736 C 335.126 57.983,334.900 57.577,334.079 56.713 C 333.330 55.926,332.544 55.281,332.331 55.281 C 332.119 55.281,332.376 55.742,332.903 56.305 M61.425 60.835 C 59.381 63.045,59.860 63.181,62.002 60.999 C 62.957 60.026,63.552 59.230,63.324 59.230 C 63.097 59.230,62.242 59.952,61.425 60.835 M55.536 67.306 C 54.962 67.838,54.492 68.405,54.492 68.564 C 54.492 68.724,55.025 68.344,55.676 67.720 C 56.328 67.095,56.861 66.529,56.861 66.461 C 56.861 66.176,56.523 66.392,55.536 67.306 M343.534 66.664 C 343.534 66.843,343.978 67.407,344.521 67.917 C 345.702 69.026,345.852 68.435,344.703 67.202 C 343.846 66.281,343.534 66.138,343.534 66.664 M347.006 70.484 C 347.531 71.498,349.852 73.716,349.852 73.204 C 349.852 72.991,349.119 72.113,348.224 71.255 C 347.329 70.396,346.780 70.049,347.006 70.484 M50.349 73.441 C 49.727 74.090,49.294 74.685,49.387 74.762 C 49.480 74.839,50.062 74.308,50.681 73.581 C 52.077 71.941,51.870 71.854,50.349 73.441 M350.263 74.038 C 350.281 74.566,352.914 77.624,353.145 77.385 C 353.244 77.281,352.633 76.397,351.787 75.420 C 350.941 74.442,350.255 73.820,350.263 74.038 M47.483 76.866 C 46.115 78.402,45.805 79.002,46.810 78.168 C 47.428 77.656,49.124 75.418,48.892 75.422 C 48.823 75.423,48.189 76.073,47.483 76.866 M353.406 78.074 C 353.406 78.571,354.534 79.556,354.800 79.290 C 354.904 79.186,354.634 78.778,354.198 78.383 C 353.762 77.989,353.406 77.850,353.406 78.074 M45.410 79.491 C 44.247 80.457,42.910 82.132,43.300 82.132 C 43.519 82.132,44.269 81.422,44.967 80.553 C 46.298 78.896,46.390 78.676,45.410 79.491 M355.350 80.436 C 356.116 81.756,356.950 82.668,357.180 82.438 C 357.499 82.119,356.600 80.765,355.693 80.198 C 355.025 79.781,354.985 79.808,355.350 80.436 M40.723 85.525 C 39.577 87.174,38.713 88.598,38.804 88.689 C 38.896 88.781,39.746 87.742,40.695 86.382 C 41.643 85.022,42.648 83.674,42.927 83.387 C 43.511 82.788,43.570 82.527,43.121 82.527 C 42.949 82.527,41.869 83.876,40.723 85.525 M358.795 84.995 C 358.962 85.267,360.548 87.621,362.320 90.227 C 371.895 104.312,379.777 119.986,385.154 135.637 C 385.228 135.854,385.331 136.209,385.382 136.426 C 385.433 136.644,385.711 137.443,386.000 138.203 C 386.289 138.963,387.013 141.315,387.609 143.429 C 388.205 145.543,388.764 147.202,388.851 147.115 C 389.202 146.763,386.333 137.200,383.688 129.911 C 379.929 119.549,371.691 103.344,365.585 94.296 C 364.750 93.059,364.067 91.860,364.067 91.631 C 364.067 91.402,363.889 91.214,363.672 91.214 C 363.455 91.214,363.277 90.948,363.277 90.622 C 363.277 90.296,363.130 90.030,362.949 90.030 C 362.769 90.030,362.369 89.541,362.061 88.944 C 361.467 87.792,361.343 87.613,360.111 86.119 C 359.681 85.597,359.329 85.020,359.329 84.836 C 359.329 84.652,359.141 84.501,358.911 84.501 C 358.678 84.501,358.627 84.720,358.795 84.995 M135.735 87.939 C 136.224 88.033,137.024 88.033,137.512 87.939 C 138.001 87.845,137.601 87.768,136.624 87.768 C 135.647 87.768,135.247 87.845,135.735 87.939 M269.990 87.939 C 270.479 88.033,271.278 88.033,271.767 87.939 C 272.256 87.845,271.856 87.768,270.879 87.768 C 269.901 87.768,269.501 87.845,269.990 87.939 M37.580 90.068 C 36.831 91.267,37.282 91.428,38.060 90.239 C 38.420 89.690,38.576 89.240,38.406 89.240 C 38.236 89.240,37.864 89.613,37.580 90.068 M124.580 89.635 C 124.083 89.849,124.010 89.974,124.383 89.974 C 124.709 89.974,125.331 89.821,125.765 89.635 C 126.263 89.421,126.336 89.295,125.962 89.295 C 125.637 89.295,125.015 89.448,124.580 89.635 M292.991 93.883 C 292.991 94.059,293.524 94.518,294.176 94.903 C 294.827 95.288,295.360 95.473,295.360 95.314 C 295.360 95.155,295.804 95.442,296.346 95.951 C 296.888 96.460,297.431 96.777,297.553 96.655 C 297.675 96.533,297.276 96.083,296.666 95.654 C 295.019 94.496,292.991 93.518,292.991 93.883 M109.240 96.802 C 107.991 97.688,107.049 98.494,107.147 98.592 C 107.286 98.730,109.512 97.310,111.714 95.680 C 111.805 95.613,111.796 95.475,111.695 95.374 C 111.594 95.273,110.489 95.915,109.240 96.802 M298.197 97.157 C 298.273 97.386,298.954 97.941,299.711 98.391 L 301.086 99.209 299.749 97.976 C 298.336 96.672,297.971 96.480,298.197 97.157 M31.787 99.506 C 31.450 100.158,31.263 100.691,31.372 100.691 C 31.480 100.691,31.845 100.158,32.182 99.506 C 32.519 98.855,32.705 98.322,32.597 98.322 C 32.488 98.322,32.124 98.855,31.787 99.506 M105.604 99.672 C 105.183 99.980,104.943 100.336,105.070 100.464 C 105.198 100.591,105.625 100.339,106.020 99.904 C 106.858 98.977,106.686 98.880,105.604 99.672 M301.283 99.220 C 301.283 99.539,302.429 100.712,305.812 103.858 C 307.637 105.555,308.116 105.885,307.233 104.837 C 305.343 102.592,301.283 98.759,301.283 99.220 M102.449 102.764 L 100.888 104.442 102.567 102.881 C 104.127 101.430,104.426 101.086,104.128 101.086 C 104.063 101.086,103.308 101.841,102.449 102.764 M29.812 103.060 C 29.476 103.712,29.289 104.245,29.397 104.245 C 29.506 104.245,29.870 103.712,30.207 103.060 C 30.544 102.409,30.731 101.876,30.622 101.876 C 30.514 101.876,30.149 102.409,29.812 103.060 M27.931 106.318 C 26.541 108.723,23.858 114.147,23.505 115.262 C 23.341 115.784,22.714 117.045,22.113 118.065 C 20.745 120.384,20.332 121.619,20.925 121.619 C 21.169 121.619,21.269 121.456,21.146 121.258 C 21.023 121.059,21.084 120.837,21.282 120.764 C 21.479 120.691,22.467 118.789,23.476 116.537 C 24.486 114.285,26.193 110.687,27.270 108.541 C 29.293 104.509,29.629 103.378,27.931 106.318 M99.628 105.519 C 97.739 107.984,97.099 108.983,97.409 108.983 C 97.832 108.983,100.422 105.424,100.177 105.179 C 100.087 105.089,99.840 105.242,99.628 105.519 M309.181 107.799 C 309.645 108.450,310.113 108.983,310.222 108.983 C 310.330 108.983,310.039 108.450,309.576 107.799 C 309.112 107.147,308.643 106.614,308.535 106.614 C 308.426 106.614,308.717 107.147,309.181 107.799 M96.044 110.563 C 95.771 111.000,95.722 111.352,95.935 111.352 C 96.147 111.352,96.510 110.997,96.742 110.563 C 96.975 110.128,97.024 109.773,96.851 109.773 C 96.679 109.773,96.316 110.128,96.044 110.563 M312.618 113.513 C 313.201 114.702,313.744 115.608,313.825 115.527 C 314.002 115.349,312.011 111.352,311.745 111.352 C 311.642 111.352,312.035 112.325,312.618 113.513 M92.838 116.924 C 92.594 117.622,92.464 118.262,92.549 118.347 C 92.633 118.431,92.901 117.929,93.145 117.232 C 93.388 116.534,93.518 115.894,93.433 115.809 C 93.349 115.725,93.081 116.227,92.838 116.924 M315.554 120.829 C 315.554 121.155,315.707 121.777,315.893 122.211 C 316.107 122.709,316.233 122.782,316.233 122.409 C 316.233 122.083,316.080 121.461,315.893 121.027 C 315.679 120.529,315.554 120.456,315.554 120.829 M91.017 122.409 C 90.867 123.091,90.827 123.732,90.927 123.833 C 91.028 123.933,91.224 123.448,91.362 122.754 C 91.691 121.108,91.372 120.789,91.017 122.409 M19.835 122.902 C 19.161 124.273,18.865 125.568,19.226 125.568 C 19.405 125.568,19.840 124.768,20.191 123.791 C 20.852 121.953,20.605 121.336,19.835 122.902 M18.300 126.572 C 17.933 127.529,18.445 127.702,18.936 126.786 C 19.241 126.215,19.247 125.962,18.955 125.962 C 18.723 125.962,18.429 126.237,18.300 126.572 M317.170 128.332 C 317.170 129.092,317.251 129.403,317.350 129.023 C 317.449 128.643,317.449 128.021,317.350 127.641 C 317.251 127.261,317.170 127.572,317.170 128.332 M17.164 129.289 C 16.400 131.116,13.438 140.414,13.192 141.757 C 13.092 142.300,14.157 139.459,15.558 135.443 C 17.870 128.815,18.715 125.576,17.164 129.289 M89.726 130.306 C 89.726 131.066,89.808 131.377,89.907 130.997 C 90.006 130.617,90.006 129.995,89.907 129.615 C 89.808 129.235,89.726 129.546,89.726 130.306 M317.666 199.013 C 317.666 236.693,317.712 252.108,317.769 233.268 C 317.826 214.427,317.826 183.598,317.769 164.758 C 317.712 145.918,317.666 161.333,317.666 199.013 M89.434 240.869 C 89.434 299.398,89.480 323.342,89.536 294.077 C 89.592 264.812,89.592 216.925,89.536 187.660 C 89.480 158.396,89.434 182.340,89.434 240.869 M118.065 141.071 C 118.065 141.345,120.763 144.233,124.061 147.488 L 130.056 153.406 124.210 147.188 L 118.364 140.970 181.690 140.869 L 245.015 140.768 181.540 140.670 C 130.637 140.592,118.065 140.671,118.065 141.071 M249.556 142.349 C 250.099 142.660,250.721 142.914,250.938 142.914 C 251.155 142.914,250.888 142.660,250.346 142.349 C 249.803 142.039,249.181 141.785,248.963 141.785 C 248.746 141.785,249.013 142.039,249.556 142.349 M12.586 143.073 C 12.515 143.452,12.442 143.725,11.876 145.704 C 11.597 146.681,11.308 147.792,11.235 148.174 C 11.161 148.555,10.992 149.045,10.858 149.261 C 10.724 149.477,10.775 149.654,10.971 149.654 C 11.390 149.654,13.185 143.359,12.858 143.033 C 12.736 142.910,12.614 142.929,12.586 143.073 M255.510 146.298 C 256.492 147.384,257.636 148.850,258.052 149.556 C 258.468 150.262,258.947 150.839,259.117 150.839 C 259.610 150.839,256.866 147.221,255.223 145.706 C 253.933 144.515,253.973 144.598,255.510 146.298 M10.450 151.089 C 10.313 151.712,10.132 152.443,10.049 152.715 C 9.965 152.986,10.049 153.208,10.235 153.208 C 10.618 153.208,11.218 150.474,10.904 150.160 C 10.791 150.048,10.588 150.466,10.450 151.089 M9.822 153.932 C 9.761 154.501,9.734 154.611,9.157 156.565 C 8.605 158.437,8.584 158.736,9.003 158.736 C 9.385 158.736,10.407 154.007,10.093 153.693 C 9.971 153.571,9.849 153.679,9.822 153.932 M260.612 157.749 C 260.612 158.509,260.790 159.131,261.007 159.131 C 261.224 159.131,261.402 158.509,261.402 157.749 C 261.402 156.989,261.224 156.367,261.007 156.367 C 260.790 156.367,260.612 156.989,260.612 157.749 M139.682 163.533 L 146.096 169.995 146.199 205.135 L 146.302 240.276 146.399 205.090 L 146.496 169.903 140.721 163.913 C 137.545 160.618,134.568 157.731,134.107 157.497 C 133.645 157.263,136.154 159.980,139.682 163.533 M8.497 160.118 C 8.384 160.661,8.191 161.594,8.067 162.192 C 7.921 162.896,7.976 163.139,8.224 162.883 C 8.655 162.437,9.274 159.131,8.927 159.131 C 8.803 159.131,8.610 159.576,8.497 160.118 M7.778 164.025 C 7.616 164.436,7.577 164.865,7.691 164.979 C 8.051 165.339,8.368 164.749,8.217 163.999 C 8.078 163.312,8.057 163.313,7.778 164.025 M7.317 166.355 C 7.148 166.744,7.121 167.173,7.256 167.309 C 7.657 167.710,7.980 167.147,7.796 166.369 C 7.632 165.679,7.611 165.678,7.317 166.355 M6.985 168.753 C 6.814 169.376,6.772 169.983,6.891 170.103 C 7.303 170.514,7.561 169.861,7.429 168.743 L 7.295 167.621 6.985 168.753 M6.590 171.912 C 6.419 172.535,6.377 173.142,6.496 173.261 C 6.908 173.673,7.167 173.020,7.034 171.902 L 6.901 170.780 6.590 171.912 M6.150 175.043 C 5.973 175.650,5.938 176.258,6.073 176.392 C 6.515 176.834,6.775 176.203,6.622 175.061 L 6.471 173.939 6.150 175.043 M394.185 177.690 C 394.185 178.667,394.262 179.067,394.356 178.578 C 394.450 178.090,394.450 177.290,394.356 176.802 C 394.262 176.313,394.185 176.713,394.185 177.690 M5.779 178.804 C 5.600 179.526,5.559 180.221,5.688 180.351 C 6.134 180.797,6.373 180.131,6.239 178.814 L 6.104 177.493 5.779 178.804 M394.571 183.416 C 394.576 184.284,394.657 184.593,394.751 184.102 C 394.846 183.611,394.842 182.900,394.743 182.523 C 394.644 182.145,394.567 182.547,394.571 183.416 M5.429 182.954 C 4.960 184.101,5.053 185.826,5.557 185.322 C 5.790 185.089,5.923 184.298,5.853 183.565 C 5.754 182.532,5.659 182.394,5.429 182.954 M5.284 191.708 C 5.285 194.314,5.349 195.329,5.426 193.963 C 5.503 192.597,5.503 190.465,5.425 189.224 C 5.347 187.984,5.283 189.102,5.284 191.708 M394.770 291.017 C 394.714 346.614,394.803 392.103,394.965 392.103 C 395.128 392.103,395.262 346.614,395.262 291.017 C 395.262 235.420,395.173 189.931,395.066 189.931 C 394.958 189.931,394.825 235.420,394.770 291.017 M5.284 203.949 C 5.285 206.555,5.349 207.570,5.426 206.204 C 5.503 204.838,5.503 202.706,5.425 201.465 C 5.347 200.225,5.283 201.343,5.284 203.949 M5.139 211.132 C 5.143 211.742,5.318 212.507,5.528 212.833 C 5.813 213.275,5.912 213.054,5.917 211.968 C 5.920 211.166,5.745 210.401,5.528 210.267 C 5.300 210.126,5.136 210.492,5.139 211.132 M5.534 216.068 C 5.538 216.786,5.712 217.641,5.923 217.966 C 6.204 218.401,6.307 218.118,6.312 216.904 C 6.315 215.994,6.140 215.139,5.923 215.005 C 5.690 214.861,5.531 215.296,5.534 216.068 M5.929 219.842 C 5.932 220.222,6.107 220.800,6.318 221.125 C 6.608 221.575,6.702 221.408,6.707 220.434 C 6.710 219.729,6.535 219.151,6.318 219.151 C 6.101 219.151,5.926 219.462,5.929 219.842 M6.324 223.001 C 6.327 223.381,6.502 223.959,6.713 224.284 C 7.003 224.734,7.097 224.567,7.102 223.593 C 7.105 222.887,6.930 222.310,6.713 222.310 C 6.496 222.310,6.321 222.621,6.324 223.001 M6.719 225.742 C 6.722 226.135,6.897 226.723,7.108 227.048 C 7.407 227.512,7.492 227.409,7.496 226.578 C 7.500 225.994,7.325 225.406,7.108 225.271 C 6.890 225.137,6.715 225.349,6.719 225.742 M7.135 228.111 C 7.224 229.136,7.842 230.005,7.870 229.145 C 7.885 228.669,7.720 228.170,7.502 228.036 C 7.285 227.901,7.120 227.935,7.135 228.111 M7.502 230.776 C 7.502 231.089,7.680 231.455,7.897 231.589 C 8.115 231.724,8.292 231.468,8.292 231.020 C 8.292 230.573,8.115 230.207,7.897 230.207 C 7.680 230.207,7.502 230.463,7.502 230.776 M7.903 232.652 C 7.915 233.643,8.674 234.460,8.681 233.488 C 8.684 233.012,8.509 232.513,8.292 232.379 C 8.075 232.245,7.900 232.368,7.903 232.652 M8.292 235.097 C 8.292 235.422,8.470 235.799,8.687 235.933 C 8.904 236.067,9.082 235.910,9.082 235.585 C 9.082 235.259,8.904 234.882,8.687 234.748 C 8.470 234.614,8.292 234.771,8.292 235.097 M9.007 238.302 C 9.096 239.062,9.347 239.684,9.566 239.684 C 9.786 239.684,9.857 239.287,9.726 238.796 C 9.595 238.307,9.485 237.685,9.482 237.414 C 9.479 237.142,9.335 236.920,9.161 236.920 C 8.988 236.920,8.918 237.542,9.007 238.302 M260.908 239.120 C 260.745 239.285,260.612 239.960,260.612 240.619 C 260.612 241.475,260.733 241.695,261.038 241.391 C 261.272 241.156,261.405 240.482,261.334 239.892 C 261.263 239.302,261.071 238.954,260.908 239.120 M9.825 241.362 C 10.005 241.851,10.080 242.457,9.992 242.708 C 9.903 242.960,10.045 243.298,10.307 243.461 C 10.661 243.679,10.718 243.421,10.526 242.460 C 10.383 241.748,10.267 241.009,10.267 240.819 C 10.267 240.629,10.093 240.474,9.881 240.474 C 9.648 240.474,9.626 240.824,9.825 241.362 M10.729 244.620 C 10.722 245.054,10.870 245.765,11.056 246.199 C 11.489 247.206,11.489 246.167,11.056 244.817 C 10.802 244.024,10.738 243.985,10.729 244.620 M11.056 247.558 C 11.056 247.762,11.237 248.041,11.458 248.178 C 11.678 248.314,11.764 248.579,11.649 248.766 C 11.533 248.953,11.619 249.218,11.840 249.354 C 12.297 249.637,12.332 249.343,11.992 248.075 C 11.760 247.208,11.056 246.819,11.056 247.558 M11.846 250.153 C 11.846 250.265,12.013 250.665,12.217 251.042 C 12.421 251.419,12.696 252.237,12.829 252.860 C 12.961 253.483,13.157 253.904,13.265 253.797 C 13.571 253.491,12.585 249.951,12.194 249.951 C 12.003 249.951,11.846 250.042,11.846 250.153 M153.208 253.311 C 153.208 253.382,153.875 253.845,154.689 254.340 C 155.503 254.835,156.300 255.427,156.460 255.655 C 156.619 255.884,156.753 255.917,156.756 255.730 C 156.759 255.542,157.162 255.646,157.651 255.961 C 158.806 256.706,160.316 257.083,160.316 256.626 C 160.316 256.430,160.059 256.269,159.745 256.269 C 159.431 256.269,157.832 255.574,156.191 254.725 C 154.551 253.876,153.208 253.240,153.208 253.311 M14.489 258.539 C 15.256 260.874,16.130 263.344,16.431 264.028 C 16.733 264.712,16.979 265.556,16.979 265.904 C 16.979 266.251,17.172 266.535,17.407 266.535 C 17.642 266.535,17.745 266.313,17.635 266.041 C 17.525 265.770,16.582 263.016,15.539 259.921 C 14.496 256.826,13.520 254.294,13.370 254.294 C 13.219 254.294,13.723 256.204,14.489 258.539 M249.062 255.751 C 248.682 255.850,248.371 256.096,248.371 256.297 C 248.371 256.855,249.006 256.734,249.556 256.071 C 249.826 255.745,249.981 255.499,249.900 255.525 C 249.819 255.550,249.442 255.652,249.062 255.751 M161.106 257.058 C 161.106 257.275,161.461 257.453,161.895 257.453 C 162.330 257.453,162.685 257.275,162.685 257.058 C 162.685 256.841,162.330 256.663,161.895 256.663 C 161.461 256.663,161.106 256.841,161.106 257.058 M244.423 257.058 C 244.423 257.275,244.679 257.453,244.992 257.453 C 245.304 257.453,245.670 257.275,245.805 257.058 C 245.939 256.841,245.683 256.663,245.236 256.663 C 244.788 256.663,244.423 256.841,244.423 257.058 M17.904 267.531 C 18.176 268.872,19.452 271.668,19.793 271.668 C 20.103 271.668,19.635 270.076,19.052 269.144 C 18.901 268.903,18.741 268.461,18.696 268.162 C 18.651 267.862,18.418 267.421,18.180 267.183 C 17.865 266.868,17.790 266.963,17.904 267.531 M317.170 269.694 C 317.170 270.454,317.251 270.765,317.350 270.385 C 317.449 270.005,317.449 269.383,317.350 269.003 C 317.251 268.623,317.170 268.934,317.170 269.694 M21.958 277.163 C 23.346 279.968,24.482 282.360,24.482 282.480 C 24.482 282.599,25.015 283.538,25.666 284.565 C 26.318 285.592,26.851 286.319,26.851 286.180 C 26.851 285.805,22.190 276.285,21.748 275.758 C 21.540 275.509,21.478 275.198,21.610 275.067 C 21.742 274.935,21.642 274.827,21.389 274.827 C 21.135 274.827,20.957 274.694,20.993 274.531 C 21.149 273.817,20.401 272.063,19.940 272.063 C 19.632 272.063,20.421 274.058,21.958 277.163 M315.350 278.036 C 315.212 278.729,315.171 279.370,315.261 279.460 C 315.350 279.549,315.546 279.064,315.696 278.381 C 315.846 277.698,315.886 277.058,315.786 276.957 C 315.685 276.856,315.489 277.342,315.350 278.036 M311.455 287.596 C 310.426 289.586,309.863 290.859,310.204 290.424 C 310.959 289.464,313.624 284.272,313.451 284.100 C 313.383 284.032,312.485 285.605,311.455 287.596 M29.023 291.017 C 29.360 291.668,29.724 292.201,29.833 292.201 C 29.941 292.201,29.754 291.668,29.418 291.017 C 29.081 290.365,28.716 289.832,28.608 289.832 C 28.499 289.832,28.686 290.365,29.023 291.017 M308.228 293.010 C 307.646 293.889,306.536 295.311,305.760 296.169 C 304.985 297.027,304.527 297.730,304.743 297.730 C 305.125 297.730,307.581 294.694,308.976 292.498 C 310.068 290.780,309.402 291.235,308.228 293.010 M30.602 293.781 C 30.939 294.432,31.304 294.965,31.412 294.965 C 31.521 294.965,31.334 294.432,30.997 293.781 C 30.660 293.129,30.296 292.596,30.187 292.596 C 30.078 292.596,30.265 293.129,30.602 293.781 M33.513 298.717 C 33.726 299.151,34.190 299.862,34.544 300.296 L 35.187 301.086 34.799 300.296 C 34.586 299.862,34.122 299.151,33.768 298.717 L 33.125 297.927 33.513 298.717 M302.245 300.011 C 301.579 300.602,300.779 301.439,300.468 301.871 C 299.482 303.238,301.644 301.650,302.787 300.168 C 303.965 298.640,303.831 298.601,302.245 300.011 M36.334 303.258 C 37.223 305.020,40.373 309.576,40.702 309.576 C 40.878 309.576,40.027 308.110,38.810 306.318 C 36.385 302.747,35.566 301.735,36.334 303.258 M296.737 304.775 C 295.431 305.786,293.921 306.939,293.381 307.335 C 292.408 308.049,292.410 308.050,293.583 307.379 C 295.193 306.458,299.704 303.260,299.704 303.040 C 299.704 302.617,298.963 303.050,296.737 304.775 M290.523 308.813 C 289.709 309.243,289.042 309.683,289.042 309.790 C 289.042 309.898,289.753 309.624,290.622 309.181 C 291.491 308.737,292.201 308.290,292.201 308.185 C 292.201 307.927,292.199 307.928,290.523 308.813 M287.068 310.563 C 286.525 310.873,286.259 311.127,286.476 311.127 C 286.693 311.127,287.315 310.873,287.858 310.563 C 288.401 310.252,288.667 309.998,288.450 309.998 C 288.233 309.998,287.611 310.252,287.068 310.563 M279.763 313.129 C 279.265 313.343,279.192 313.469,279.566 313.469 C 279.891 313.469,280.513 313.316,280.948 313.129 C 281.445 312.915,281.518 312.790,281.145 312.790 C 280.819 312.790,280.197 312.943,279.763 313.129 M177.394 315.005 C 194.497 315.062,222.483 315.062,239.585 315.005 C 256.688 314.948,242.695 314.901,208.490 314.901 C 174.284 314.901,160.291 314.948,177.394 315.005 M46.594 317.473 C 47.282 318.342,47.934 319.052,48.043 319.052 C 48.151 319.052,47.677 318.342,46.989 317.473 C 46.301 316.604,45.649 315.893,45.541 315.893 C 45.432 315.893,45.906 316.604,46.594 317.473 M57.171 329.911 C 57.397 330.346,58.154 331.234,58.852 331.885 C 59.732 332.706,59.995 332.827,59.710 332.280 C 59.483 331.846,58.727 330.958,58.028 330.306 C 57.149 329.486,56.885 329.364,57.171 329.911 M65.548 338.167 C 65.548 338.627,68.719 341.560,69.216 341.560 C 69.443 341.560,69.551 341.515,69.456 341.461 C 69.362 341.407,68.444 340.570,67.416 339.602 C 66.389 338.634,65.548 337.988,65.548 338.167 M109.933 341.222 C 109.185 342.065,109.185 342.067,110.069 341.603 C 110.558 341.347,110.958 340.966,110.958 340.756 C 110.958 340.195,110.769 340.281,109.933 341.222 M70.819 343.043 C 70.974 343.293,71.660 343.896,72.344 344.383 C 73.028 344.870,73.462 345.064,73.307 344.815 C 73.153 344.565,72.467 343.962,71.783 343.475 C 71.098 342.988,70.665 342.793,70.819 343.043 M74.428 346.262 C 75.176 347.119,76.604 348.089,76.604 347.741 C 76.604 347.650,75.938 347.078,75.123 346.469 C 73.911 345.563,73.785 345.525,74.428 346.262 M77.554 349.005 C 78.389 349.946,78.578 350.032,78.578 349.471 C 78.578 349.261,78.179 348.880,77.690 348.624 C 76.806 348.160,76.806 348.162,77.554 349.005 M89.775 352.813 C 89.774 354.768,89.840 355.617,89.923 354.701 C 90.006 353.785,90.007 352.185,89.925 351.147 C 89.844 350.109,89.776 350.859,89.775 352.813 M79.210 350.405 C 79.465 351.069,80.553 351.582,80.553 351.038 C 80.553 350.835,80.201 350.481,79.772 350.252 C 79.146 349.916,79.034 349.947,79.210 350.405 M80.948 351.717 C 80.948 351.890,81.303 352.253,81.737 352.524 C 82.175 352.798,82.527 352.846,82.527 352.633 C 82.527 352.422,82.172 352.059,81.737 351.826 C 81.303 351.594,80.948 351.545,80.948 351.717 M82.922 353.129 C 82.922 353.627,98.910 364.462,99.645 364.462 C 99.788 364.462,96.421 362.108,92.163 359.230 C 87.906 356.352,84.085 353.754,83.672 353.456 C 83.260 353.158,82.922 353.011,82.922 353.129 M105.035 367.391 C 105.035 367.513,106.489 368.343,108.266 369.237 C 110.044 370.131,112.189 371.298,113.034 371.831 C 113.878 372.364,114.748 372.741,114.965 372.669 C 115.183 372.596,113.038 371.329,110.198 369.853 C 107.358 368.378,105.035 367.270,105.035 367.391 M115.696 373.103 C 115.696 373.295,116.007 373.562,116.387 373.696 C 116.767 373.830,117.300 374.043,117.572 374.169 C 117.843 374.296,118.065 374.177,118.065 373.906 C 118.065 373.634,117.955 373.522,117.821 373.657 C 117.686 373.791,117.318 373.643,117.003 373.328 C 116.361 372.686,115.696 372.572,115.696 373.103 M120.829 375.433 C 120.829 375.798,122.801 376.837,123.040 376.598 C 123.114 376.524,122.647 376.152,122.002 375.771 C 121.357 375.390,120.829 375.238,120.829 375.433 M127.937 378.732 C 130.640 379.933,137.501 382.268,137.917 382.129 C 138.120 382.061,137.245 381.682,135.974 381.287 C 134.703 380.891,132.090 379.964,130.168 379.227 C 126.330 377.756,125.147 377.493,127.937 378.732 M141.560 383.416 C 141.994 383.602,142.616 383.755,142.942 383.755 C 143.315 383.755,143.242 383.630,142.744 383.416 C 142.310 383.229,141.688 383.076,141.362 383.076 C 140.989 383.076,141.062 383.202,141.560 383.416 M173.840 390.401 C 174.220 390.500,174.842 390.500,175.222 390.401 C 175.602 390.301,175.291 390.220,174.531 390.220 C 173.771 390.220,173.460 390.301,173.840 390.401 M181.540 391.197 C 182.029 391.291,182.828 391.291,183.317 391.197 C 183.806 391.103,183.406 391.026,182.428 391.026 C 181.451 391.026,181.051 391.103,181.540 391.197 M187.266 391.601 C 188.080 391.686,189.413 391.686,190.227 391.601 C 191.041 391.515,190.375 391.446,188.746 391.446 C 187.117 391.446,186.451 391.515,187.266 391.601 M245.311 392.004 C 271.969 392.060,315.592 392.060,342.251 392.004 C 368.909 391.948,347.098 391.902,293.781 391.902 C 240.464 391.902,218.653 391.948,245.311 392.004 " stroke="none" fill="#e78484" fill-rule="evenodd"></path><path id="path2" d="M299.811 97.963 C 300.195 98.187,300.390 98.565,300.243 98.802 C 300.084 99.061,300.159 99.121,300.433 98.952 C 300.683 98.797,300.888 98.888,300.888 99.154 C 300.888 99.420,301.006 99.521,301.149 99.377 C 301.473 99.054,300.136 97.528,299.544 97.544 C 299.306 97.551,299.426 97.739,299.811 97.963 M102.753 101.985 C 101.402 103.348,100.296 104.581,100.296 104.725 C 100.296 104.869,101.451 103.820,102.863 102.394 C 105.194 100.040,105.648 99.506,105.319 99.506 C 105.259 99.506,104.104 100.622,102.753 101.985 M301.876 99.901 C 301.741 100.118,301.686 100.310,301.754 100.326 C 303.054 100.648,303.275 100.595,302.836 100.067 C 302.283 99.400,302.195 99.385,301.876 99.901 M89.339 133.268 C 89.344 134.136,89.425 134.445,89.519 133.954 C 89.614 133.463,89.610 132.752,89.511 132.374 C 89.412 131.997,89.335 132.399,89.339 133.268 M125.962 149.062 C 127.142 150.257,128.196 151.234,128.305 151.234 C 128.413 151.234,127.537 150.257,126.357 149.062 C 125.178 147.868,124.124 146.890,124.015 146.890 C 123.907 146.890,124.783 147.868,125.962 149.062 M131.885 155.380 C 133.065 156.575,134.119 157.552,134.228 157.552 C 134.336 157.552,133.460 156.575,132.280 155.380 C 131.101 154.186,130.047 153.208,129.938 153.208 C 129.830 153.208,130.706 154.186,131.885 155.380 M260.612 199.234 C 260.612 225.868,260.745 239.254,261.007 239.092 C 261.266 238.932,261.402 225.136,261.402 198.990 C 261.402 172.681,261.268 159.131,261.007 159.131 C 260.746 159.131,260.612 172.762,260.612 199.234 M144.916 168.411 C 145.653 169.171,146.344 169.793,146.453 169.793 C 146.562 169.793,146.048 169.171,145.311 168.411 C 144.574 167.651,143.883 167.029,143.774 167.029 C 143.665 167.029,144.179 167.651,144.916 168.411 M162.685 257.058 C 162.685 257.319,176.571 257.453,203.554 257.453 C 230.536 257.453,244.423 257.319,244.423 257.058 C 244.423 256.798,230.536 256.663,203.554 256.663 C 176.571 256.663,162.685 256.798,162.685 257.058 M303.612 299.013 L 302.728 300.296 303.980 299.136 C 305.330 297.886,305.428 297.730,304.864 297.730 C 304.662 297.730,304.098 298.307,303.612 299.013 M176.999 315.400 C 194.102 315.457,222.088 315.457,239.191 315.400 C 256.293 315.343,242.300 315.296,208.095 315.296 C 173.889 315.296,159.896 315.343,176.999 315.400 " stroke="none" fill="#e57374" fill-rule="evenodd"></path><path id="path3" d="M131.293 15.815 C 130.859 16.014,129.990 16.363,129.363 16.589 C 128.735 16.816,128.311 17.090,128.418 17.198 C 128.645 17.424,132.280 15.930,132.280 15.611 C 132.280 15.359,132.293 15.357,131.293 15.815 M267.358 16.323 C 267.738 16.631,270.879 17.747,270.879 17.574 C 270.879 17.337,268.165 16.190,267.606 16.190 C 267.379 16.190,267.267 16.249,267.358 16.323 M309.181 37.642 C 309.181 38.229,312.701 40.255,312.968 39.823 C 313.132 39.558,313.080 39.471,312.845 39.616 C 312.622 39.754,311.972 39.434,311.402 38.906 C 310.832 38.377,310.365 38.047,310.365 38.172 C 310.365 38.297,310.099 38.178,309.773 37.907 C 309.447 37.637,309.181 37.518,309.181 37.642 M63.083 59.814 C 61.993 61.004,60.903 61.864,60.659 61.725 C 60.416 61.586,60.351 61.620,60.514 61.800 C 60.678 61.980,60.517 62.453,60.157 62.850 C 58.527 64.651,60.119 63.295,62.784 60.612 C 64.402 58.983,65.577 57.651,65.395 57.651 C 65.213 57.651,64.173 58.624,63.083 59.814 M341.524 64.692 C 342.009 65.597,343.049 66.476,343.761 66.580 C 344.059 66.624,343.661 66.054,342.876 65.314 C 341.258 63.788,340.970 63.655,341.524 64.692 M45.360 79.171 C 45.333 79.279,45.286 79.501,45.256 79.664 C 45.225 79.827,45.039 80.227,44.842 80.553 C 44.621 80.919,44.808 80.861,45.332 80.401 C 45.799 79.992,46.086 79.504,45.969 79.315 C 45.735 78.937,45.437 78.866,45.360 79.171 M356.877 82.997 C 357.443 83.563,358.637 83.794,358.316 83.276 C 358.192 83.074,357.924 83.011,357.722 83.136 C 357.520 83.261,357.354 83.175,357.354 82.945 C 357.354 82.715,357.141 82.527,356.881 82.527 C 356.514 82.527,356.513 82.634,356.877 82.997 M41.710 84.915 C 41.322 85.572,40.823 85.977,40.584 85.829 C 40.327 85.671,40.268 85.748,40.436 86.020 C 40.591 86.271,40.784 86.476,40.865 86.476 C 41.138 86.476,42.733 84.063,42.569 83.899 C 42.480 83.809,42.093 84.267,41.710 84.915 M39.476 88.015 C 38.583 89.063,38.089 90.030,38.447 90.030 C 38.527 90.030,39.062 89.319,39.637 88.450 C 40.873 86.582,40.820 86.439,39.476 88.015 M36.810 91.402 C 36.966 91.576,36.725 92.236,36.273 92.871 C 35.821 93.505,35.518 94.090,35.598 94.170 C 35.679 94.251,36.139 93.716,36.620 92.981 C 37.270 91.990,37.371 91.573,37.010 91.367 C 36.744 91.213,36.653 91.229,36.810 91.402 M18.260 127.409 C 17.987 127.519,17.846 127.741,17.945 127.903 C 18.161 128.252,15.233 136.718,14.981 136.472 C 14.886 136.378,14.782 136.951,14.751 137.746 C 14.720 138.540,14.789 138.924,14.904 138.598 C 16.381 134.410,18.870 127.154,18.820 127.178 C 18.785 127.195,18.533 127.299,18.260 127.409 M388.953 149.095 C 388.973 149.806,390.847 156.554,390.882 156.038 C 390.923 155.441,389.359 149.150,389.108 148.898 C 389.018 148.807,388.948 148.896,388.953 149.095 M390.918 157.726 C 390.918 158.256,391.064 158.780,391.241 158.890 C 391.419 159.000,391.488 158.566,391.394 157.926 C 391.187 156.515,390.918 156.402,390.918 157.726 M393.379 172.557 C 393.379 173.317,393.460 173.628,393.559 173.248 C 393.659 172.868,393.659 172.246,393.559 171.866 C 393.460 171.486,393.379 171.797,393.379 172.557 M393.774 176.505 C 393.774 177.266,393.855 177.577,393.954 177.196 C 394.054 176.816,394.054 176.194,393.954 175.814 C 393.855 175.434,393.774 175.745,393.774 176.505 M394.177 182.231 C 394.181 183.100,394.262 183.409,394.356 182.917 C 394.451 182.426,394.447 181.715,394.348 181.338 C 394.249 180.960,394.172 181.362,394.177 182.231 M394.570 290.499 L 394.472 391.660 392.991 391.815 L 391.510 391.970 393.004 392.036 C 393.889 392.076,394.573 391.902,394.684 391.609 C 394.787 391.338,394.826 345.716,394.770 290.227 L 394.668 189.339 394.570 290.499 M5.241 197.828 C 5.241 198.806,5.318 199.205,5.412 198.717 C 5.506 198.228,5.506 197.428,5.412 196.940 C 5.318 196.451,5.241 196.851,5.241 197.828 M14.856 258.061 C 15.213 259.138,15.661 260.191,15.852 260.399 C 16.042 260.608,15.906 259.897,15.549 258.820 C 15.192 257.742,14.744 256.690,14.553 256.481 C 14.362 256.272,14.498 256.983,14.856 258.061 M16.435 262.799 C 16.792 263.877,17.240 264.929,17.431 265.138 C 17.622 265.347,17.486 264.636,17.129 263.558 C 16.772 262.481,16.323 261.428,16.133 261.220 C 15.942 261.011,16.078 261.722,16.435 262.799 M17.614 266.370 C 17.296 267.199,17.294 267.193,17.912 267.193 C 18.240 267.193,18.376 266.910,18.261 266.469 C 18.029 265.583,17.922 265.567,17.614 266.370 M35.670 301.822 C 35.670 302.118,36.004 302.569,36.413 302.824 C 37.126 303.270,37.129 303.248,36.499 302.286 C 35.742 301.130,35.670 301.090,35.670 301.822 M39.882 307.996 C 40.345 308.648,40.814 309.181,40.922 309.181 C 41.031 309.181,40.740 308.648,40.276 307.996 C 39.812 307.345,39.344 306.811,39.235 306.811 C 39.127 306.811,39.418 307.345,39.882 307.996 M41.165 310.002 C 41.545 310.223,41.856 310.643,41.856 310.935 C 41.856 311.227,42.134 311.572,42.473 311.702 C 42.938 311.880,42.882 311.647,42.249 310.757 C 41.786 310.107,41.197 309.581,40.941 309.588 C 40.684 309.594,40.785 309.781,41.165 310.002 M45.313 315.761 C 45.586 315.871,45.721 316.103,45.614 316.277 C 45.506 316.451,45.669 316.801,45.975 317.055 C 46.406 317.413,46.513 317.401,46.453 317.001 C 46.327 316.169,45.794 315.496,45.288 315.530 C 44.951 315.552,44.958 315.618,45.313 315.761 M57.256 329.442 C 57.256 329.510,57.833 330.088,58.539 330.726 L 59.822 331.885 58.663 330.602 C 57.581 329.406,57.256 329.137,57.256 329.442 M64.137 337.161 C 64.773 337.838,65.376 338.310,65.477 338.209 C 65.744 337.941,64.757 336.846,63.803 336.354 C 63.180 336.032,63.261 336.227,64.137 337.161 M66.681 338.931 C 66.923 339.222,66.989 339.606,66.828 339.784 C 66.667 339.961,66.737 339.991,66.984 339.850 C 67.442 339.589,68.464 340.486,68.111 340.839 C 68.004 340.946,68.190 341.033,68.523 341.033 C 68.934 341.033,68.718 340.609,67.853 339.717 C 66.593 338.416,65.829 337.904,66.681 338.931 M123.989 376.635 C 123.990 376.781,125.700 377.553,127.789 378.350 C 129.878 379.148,131.432 379.652,131.243 379.470 C 130.714 378.963,123.988 376.334,123.989 376.635 " stroke="none" fill="#f06c6c" fill-rule="evenodd"></path><path id="path4" d="M150.148 9.919 C 149.442 10.122,148.865 10.376,148.865 10.483 C 148.865 10.769,150.975 10.221,151.412 9.821 C 151.842 9.426,151.856 9.425,150.148 9.919 M146.220 11.010 C 145.091 11.375,144.041 11.800,143.886 11.955 C 143.472 12.369,147.811 11.048,148.253 10.626 C 148.700 10.198,148.789 10.181,146.220 11.010 M96.150 33.564 C 94.847 34.431,93.917 35.141,94.083 35.142 C 94.421 35.143,98.717 32.347,98.717 32.126 C 98.717 31.873,98.551 31.966,96.150 33.564 M339.497 62.621 C 339.960 63.292,340.642 64.092,341.014 64.398 C 342.169 65.351,341.035 63.550,339.749 62.389 L 338.655 61.402 339.497 62.621 M57.292 65.307 C 57.001 65.657,56.896 65.943,57.058 65.943 C 57.220 65.943,57.119 66.254,56.834 66.634 C 56.535 67.031,56.703 66.964,57.227 66.477 C 57.728 66.011,58.067 65.414,57.979 65.151 C 57.866 64.812,57.664 64.858,57.292 65.307 M102.270 102.073 C 101.311 103.050,100.615 103.850,100.724 103.850 C 100.833 103.850,101.706 103.050,102.665 102.073 C 103.624 101.096,104.320 100.296,104.212 100.296 C 104.103 100.296,103.230 101.096,102.270 102.073 M315.164 118.065 C 315.164 118.391,315.403 119.279,315.696 120.039 C 315.989 120.800,316.228 121.155,316.228 120.829 C 316.228 120.503,315.989 119.615,315.696 118.855 C 315.403 118.095,315.164 117.739,315.164 118.065 M317.164 125.568 C 317.160 126.111,317.299 126.999,317.473 127.542 C 317.898 128.869,317.898 127.435,317.473 125.765 C 317.202 124.701,317.171 124.681,317.164 125.568 M317.772 131.586 C 317.979 134.936,318.195 135.360,318.225 132.478 C 318.239 131.175,318.108 129.885,317.935 129.612 C 317.761 129.338,317.688 130.227,317.772 131.586 M122.606 145.311 C 124.988 147.700,127.025 149.654,127.134 149.654 C 127.242 149.654,125.383 147.700,123.001 145.311 C 120.619 142.922,118.582 140.967,118.473 140.967 C 118.365 140.967,120.225 142.922,122.606 145.311 M134.249 157.256 C 139.196 162.299,139.783 162.864,139.783 162.581 C 139.783 162.524,137.340 160.080,134.353 157.151 L 128.924 151.826 134.249 157.256 M146.685 205.133 C 146.685 224.679,146.733 232.617,146.792 222.774 C 146.850 212.930,146.850 196.938,146.792 187.236 C 146.733 177.533,146.685 185.587,146.685 205.133 M393.682 178.654 C 393.682 179.184,393.828 179.708,394.006 179.818 C 394.183 179.928,394.252 179.494,394.158 178.854 C 393.951 177.443,393.682 177.330,393.682 178.654 M11.852 247.417 C 11.855 247.833,12.038 248.440,12.259 248.766 C 12.552 249.199,12.588 249.039,12.395 248.174 C 12.070 246.722,11.844 246.407,11.852 247.417 M12.691 250.346 C 12.691 250.671,12.844 251.293,13.031 251.728 C 13.245 252.225,13.370 252.298,13.370 251.925 C 13.370 251.599,13.217 250.977,13.031 250.543 C 12.817 250.045,12.691 249.972,12.691 250.346 M317.863 266.024 C 317.757 267.588,317.813 268.725,317.987 268.550 C 318.161 268.375,318.248 267.095,318.180 265.705 L 318.056 263.179 317.863 266.024 M316.541 274.887 C 316.137 276.700,315.390 279.332,314.881 280.736 C 314.372 282.139,314.019 283.351,314.096 283.428 C 314.543 283.875,317.630 273.339,317.394 272.175 C 317.329 271.853,316.945 273.073,316.541 274.887 M286.278 311.352 C 285.735 311.663,285.469 311.917,285.686 311.917 C 285.903 311.917,286.525 311.663,287.068 311.352 C 287.611 311.042,287.878 310.788,287.660 310.788 C 287.443 310.788,286.821 311.042,286.278 311.352 M276.604 314.332 C 276.054 314.582,276.293 314.617,277.394 314.450 C 278.263 314.317,279.047 314.144,279.138 314.064 C 279.477 313.765,277.362 313.989,276.604 314.332 M272.695 314.750 C 271.414 314.937,270.268 315.188,270.149 315.307 C 269.816 315.639,274.548 315.044,275.222 314.668 C 275.901 314.290,275.836 314.292,272.695 314.750 M60.067 332.280 C 60.419 332.715,60.804 333.337,60.924 333.662 C 61.109 334.165,61.147 334.159,61.173 333.625 C 61.190 333.278,60.805 332.657,60.316 332.243 C 59.435 331.497,59.433 331.497,60.067 332.280 M118.186 335.863 L 117.078 336.879 118.361 335.986 C 119.067 335.495,119.645 335.038,119.645 334.970 C 119.645 334.658,119.208 334.926,118.186 335.863 M90.690 358.176 C 91.180 358.769,93.583 360.281,93.583 359.996 C 93.583 359.904,92.828 359.330,91.905 358.722 C 90.982 358.113,90.435 357.867,90.690 358.176 M138.437 381.805 C 138.903 382.235,141.761 383.149,141.974 382.936 C 142.064 382.846,141.224 382.480,140.108 382.123 C 138.991 381.766,138.239 381.623,138.437 381.805 M142.942 383.398 C 143.268 383.618,143.875 383.801,144.291 383.804 C 145.301 383.812,144.986 383.586,143.534 383.262 C 142.669 383.068,142.509 383.105,142.942 383.398 " stroke="none" fill="#ed6364" fill-rule="evenodd"></path></g></svg>